#N canvas 331 25 928 613 12;
#X obj 155 121 makenote, f 48;
#X obj 262 525 *~;
#X obj 387 496 hsl 162 19 0 1 0 0 empty empty empty -2 -10 0 12 #fcfcfc #000000 #000000 0 1;
#X obj 295 578 dac~;
#X floatatom 319 43 5 0 0 0 - - - 0;
#X floatatom 465 43 5 0 0 0 - - - 0;
#X floatatom 154 146 5 0 0 0 - - - 0;
#X obj 154 169 mtof;
#X floatatom 154 193 8 0 0 0 - - - 0;
#X floatatom 813 211 5 0 0 0 - - - 0;
#N canvas 456 72 492 258 ampenv 0;
#X obj 42 46 inlet;
#X obj 260 46 inlet;
#X obj 92 46 inlet;
#X obj 142 46 inlet;
#X obj 209 207 outlet~;
#X obj 192 46 inlet;
#X obj 405 46 inlet;
#X obj 208 180 vline~;
#X msg 361 133 0 \$2;
#X floatatom 92 79 5 0 0 0 - - - 0;
#X floatatom 142 79 5 0 0 0 - - - 0;
#X floatatom 192 79 5 0 0 0 - - - 0;
#X floatatom 413 80 5 0 0 0 - - - 0;
#X obj 363 79 bng 19 250 50 0 empty empty empty 0 -10 0 12 #fcfcfc #000000 #000000;
#X obj 362 108 pack f f, f 12;
#X obj 309 78 sel 0;
#X obj 42 79 bng 19 250 50 0 empty empty empty 0 -10 0 12 #fcfcfc #000000 #000000;
#X obj 42 108 pack f f f f f, f 29;
#X msg 42 134 \$5 \$2 \, \$4 \$3 \$2;
#X obj 260 79 / 100;
#X text 254 101 Velocity;
#X text 28 22 Note on;
#X text 307 45 Note off;
#X text 91 22 Attack;
#X text 143 21 Decay;
#X text 191 21 Sustain;
#X text 392 21 Release;
#X connect 0 0 16 0;
#X connect 1 0 15 0;
#X connect 1 0 19 0;
#X connect 2 0 9 0;
#X connect 3 0 10 0;
#X connect 5 0 11 0;
#X connect 6 0 12 0;
#X connect 7 0 4 0;
#X connect 8 0 7 0;
#X connect 9 0 17 1;
#X connect 10 0 17 2;
#X connect 11 0 17 3;
#X connect 12 0 14 1;
#X connect 13 0 14 0;
#X connect 14 0 8 0;
#X connect 15 0 13 0;
#X connect 16 0 17 0;
#X connect 17 0 18 0;
#X connect 18 0 7 0;
#X connect 19 0 17 4;
#X restore 432 363 pd ampenv;
#X f 62;
#X floatatom 584 273 5 0 500 0 - - - 0;
#X floatatom 670 273 5 0 500 0 - - - 0;
#X floatatom 756 273 5 0 1 0 - - - 0;
#X obj 265 432 *~;
#X floatatom 308 433 5 0 0 0 - - - 0;
#X obj 309 396 + 50;
#X obj 294 525 *~;
#X obj 432 276 bng 19 250 50 0 empty empty empty 0 -10 0 12 #fcfcfc #000000 #000000;
#X obj 657 209 loadbang;
#X obj 264 466 vcf~ 2, f 13;
#X text 356 353 Filter cuttoff, f 7;
#X text 474 476 Main level;
#X obj 155 94 ftom;
#N canvas 205 198 961 349 oscsel 0;
#X obj 87 178 expr if($f1 == 0 \, 1 \, 0);
#X obj 122 246 *~;
#X obj 69 206 osc~;
#X obj 345 233 *~;
#X obj 652 29 inlet;
#X obj 561 234 *~;
#X obj 310 174 expr if($f1 == 1 \, 1 \, 0);
#X obj 526 175 expr if($f1 == 2 \, 1 \, 0);
#X obj 752 159 expr if($f1 == 3 \, 1 \, 0);
#X obj 540 305 outlet~;
#X obj 69 230 *~ 2;
#X obj 764 227 *~;
#X obj 408 37 inlet;
#X text 177 202 Sine wave;
#X text 378 200 Triangle wave;
#X text 584 205 Sawtooth wave;
#X text 818 185 Square wave;
#N canvas 295 320 450 300 square 0;
#X obj 38 193 phasor~;
#X obj 119 194 phasor~;
#X msg 84 121 0;
#X msg 165 122 0.5;
#X obj 113 91 loadbang;
#X obj 119 166 * -1;
#X obj 102 228 +~;
#X obj 102 259 -~ 1;
#X text 61 29 Square Wave;
#X obj 37 120 inlet;
#X obj 102 319 outlet~;
#X obj 102 283 *~ 2;
#X connect 0 0 6 0;
#X connect 1 0 6 1;
#X connect 2 0 0 1;
#X connect 3 0 1 1;
#X connect 4 0 2 0;
#X connect 4 0 3 0;
#X connect 5 0 1 0;
#X connect 6 0 7 0;
#X connect 7 0 11 0;
#X connect 9 0 0 0;
#X connect 9 0 5 0;
#X connect 11 0 10 0;
#X restore 752 190 pd square;
#N canvas 173 360 450 300 saw 0;
#X obj 149 75 phasor~;
#X obj 149 105 *~ -2;
#X obj 149 130 +~ 1;
#X obj 149 46 inlet;
#X obj 149 154 outlet~;
#X connect 0 0 1 0;
#X connect 1 0 2 0;
#X connect 2 0 4 0;
#X connect 3 0 0 0;
#X restore 526 204 pd saw;
#N canvas 121 146 450 300 triangle 0;
#X obj 77 246 +~;
#X obj 20 201 clip~ 0 1;
#X obj 20 172 -~ 1;
#X obj 20 146 *~ 2;
#X obj 20 120 phasor~;
#X obj 83 81 * -1;
#X obj 97 201 clip~ 0 1;
#X obj 97 172 -~ 1;
#X obj 97 146 *~ 2;
#X obj 97 120 phasor~;
#X msg 134 80 0;
#X obj 22 43 inlet;
#X obj 77 314 outlet~;
#X text 44 13 Triangle Wave;
#X obj 77 284 *~ 4;
#X connect 0 0 14 0;
#X connect 1 0 0 0;
#X connect 2 0 1 0;
#X connect 3 0 2 0;
#X connect 4 0 3 0;
#X connect 5 0 9 0;
#X connect 6 0 0 1;
#X connect 7 0 6 0;
#X connect 8 0 7 0;
#X connect 9 0 8 0;
#X connect 10 0 9 1;
#X connect 10 0 4 1;
#X connect 11 0 4 0;
#X connect 11 0 5 0;
#X connect 14 0 12 0;
#X restore 293 197 pd triangle;
#X connect 0 0 1 1;
#X connect 1 0 9 0;
#X connect 2 0 10 0;
#X connect 3 0 9 0;
#X connect 4 0 8 0;
#X connect 4 0 7 0;
#X connect 4 0 6 0;
#X connect 4 0 0 0;
#X connect 5 0 9 0;
#X connect 6 0 3 1;
#X connect 7 0 5 1;
#X connect 8 0 11 1;
#X connect 10 0 1 0;
#X connect 11 0 9 0;
#X connect 12 0 2 0;
#X connect 12 0 18 0;
#X connect 12 0 17 0;
#X connect 12 0 19 0;
#X connect 17 0 11 0;
#X connect 18 0 5 0;
#X connect 19 0 3 0;
#X restore 155 252 pd oscsel;
#X f 12;
#X floatatom 236 223 5 0 0 0 - - - 0;
#N canvas 541 179 232 174 randnum 0;
#X obj 66 18 inlet;
#X obj 66 53 random 300;
#X obj 66 92 outlet;
#X obj 119 18 inlet;
#X connect 0 0 1 0;
#X connect 1 0 2 0;
#X connect 3 0 1 1;
#X restore 518 314 pd randnum;
#X msg 584 245 300;
#N canvas 541 179 232 174 randnum 0;
#X obj 66 18 inlet;
#X obj 66 53 random 300;
#X obj 66 92 outlet;
#X obj 119 18 inlet;
#X connect 0 0 1 0;
#X connect 1 0 2 0;
#X connect 3 0 1 1;
#X restore 604 314 pd randnum;
#X msg 670 245 200;
#N canvas 541 179 232 174 randnum 0;
#X obj 66 18 inlet;
#X obj 66 53 random 300;
#X obj 66 92 outlet;
#X obj 119 18 inlet;
#X connect 0 0 1 0;
#X connect 1 0 2 0;
#X connect 3 0 1 1;
#X restore 690 314 pd randnum;
#X msg 756 245 100;
#X obj 690 338 / 100;
#N canvas 541 179 232 174 randnum 0;
#X obj 66 18 inlet;
#X obj 66 53 random 300;
#X obj 66 92 outlet;
#X obj 119 18 inlet;
#X connect 0 0 1 0;
#X connect 1 0 2 0;
#X connect 3 0 1 1;
#X restore 799 314 pd randnum;
#X floatatom 864 195 5 0 0 0 - - - 0;
#X obj 309 357 random 12000, f 6;
#X obj 263 495 rev2~ 100 60;
#X floatatom 155 43 5 0 0 0 - - - 0;
#X obj 384 443 loadbang;
#X msg 384 468 0.75;
#X obj 319 10 r Velocity;
#X obj 34 252 r BinarySignal;
#X obj 236 193 r WaveShape;
#X obj 465 10 r Duration;
#X obj 155 10 r Frequency;
#X obj 146 535 r start, f 5;
#X obj 189 535 r stop, f 4;
#N canvas 399 151 940 417 network_receive 0;
#X obj 37 109 oscparse;
#X msg 37 47 listen 5005;
#X obj 37 78 netreceive -u -b;
#X obj 37 140 list split 1;
#X obj 77 172 list trim;
#X obj 181 225 s Velocity;
#X obj 77 225 s BinarySignal;
#X obj 286 226 s WaveShape;
#X obj 390 226 s Duration;
#X obj 495 225 s Frequency;
#X obj 599 292 s start;
#X obj 660 292 s stop;
#X obj 37 16 loadbang;
#X obj 77 200 route BinarySignal Velocity WaveShape Duration Frequency Transport, f 90;
#X obj 599 262 sel Start Stop, f 18;
#X obj 599 233 unpack s;
#X connect 0 0 3 0;
#X connect 1 0 2 0;
#X connect 2 0 0 0;
#X connect 3 1 4 0;
#X connect 4 0 13 0;
#X connect 12 0 1 0;
#X connect 13 0 6 0;
#X connect 13 1 5 0;
#X connect 13 2 7 0;
#X connect 13 3 8 0;
#X connect 13 4 9 0;
#X connect 13 5 15 0;
#X connect 14 0 10 0;
#X connect 14 1 11 0;
#X connect 15 0 14 0;
#X restore 16 36 pd network_receive;
#N canvas 92 117 321 288 ringmod_selector 0;
#X obj 192 176 *~;
#X floatatom 38 57 5 0 0 0 - - - 0;
#X obj 38 101 != 1;
#X floatatom 38 128 5 0 0 0 - - - 0;
#X obj 113 176 *~;
#N canvas 408 120 624 583 ringmod 0;
#X floatatom 106 56 5 0 0 0 - - - 0;
#X obj 109 28 hsl 162 19 1 1500 0 0 empty ringmod_osc1 empty -2 -10 0 12 #fcfcfc #000000 #000000 0 1;
#X obj 124 244 *~;
#X obj 146 484 *~;
#X obj 191 453 hsl 162 19 0 1 0 0 empty ringmod_output empty -2 -10 0 12 #fcfcfc #000000 #000000 0 1;
#X obj 146 212 osc~;
#X floatatom 146 186 5 0 0 0 - - - 0;
#X obj 149 158 hsl 162 19 1 1500 0 0 empty ringmod_osc2 empty -2 -10 0 12 #fcfcfc #000000 #000000 0 1;
#X obj 91 193 *~;
#X obj 107 108 expr~ $v1 * 2 - 1;
#X obj 23 25 inlet~;
#X obj 147 515 outlet~;
#X obj 35 456 *~;
#X obj 174 310 hsl 162 19 0 1 0 0 empty ringmod_dry/wet empty -2 -10 0 12 #fcfcfc #000000 #000000 0 1;
#X obj 147 368 *~;
#X obj 52 400 * -1;
#X obj 52 425 + 1;
#X text 187 284 Dry/Wet;
#X text 234 432 Output level;
#X obj 123 273 *~ 1.7;
#X text 379 346 Input sent to a modulator chain and a dry chain., f 25;
#X text 379 431 Dry and wet signals mixed together and sent to an output level control., f 25;
#X text 162 7 Osc1 freq;
#X text 204 138 Osc2 freq;
#X obj 199 219 loadbang;
#X msg 198 248 1;
#X obj 107 84 osc~ 440;
#X text 379 388 Amplitude modulated by 2 sine waves., f 25;
#X obj 198 369 loadbang;
#X msg 197 398 1;
#X floatatom 378 120 5 0 0 0 - - - 0;
#X floatatom 378 63 5 0 0 0 - - - 0;
#X floatatom 454 63 5 0 0 0 - - - 0;
#X floatatom 517 63 5 1 1000 0 - - - 0;
#N canvas 382 407 307 300 simpleLFO 0;
#X obj 90 92 osc~ 3, f 10;
#X obj 78 129 snapshot~;
#X obj 77 16 loadbang;
#X obj 77 40 tgl 19 0 empty empty empty 0 -10 0 12 #fcfcfc #000000 #000000 0 1;
#X floatatom 77 153 5 0 0 0 - - - 0;
#X floatatom 77 224 5 0 0 0 - - - 0;
#X obj 157 49 inlet;
#X obj 178 127 inlet;
#X obj 200 164 inlet;
#X text 162 27 Rate;
#X text 200 146 Offset;
#X text 179 108 Intensity;
#X obj 77 247 outlet;
#X obj 78 68 metro 200;
#X obj 78 176 *, f 15;
#X obj 77 200 +, f 18;
#X connect 0 0 1 0;
#X connect 1 0 4 0;
#X connect 2 0 3 0;
#X connect 3 0 13 0;
#X connect 4 0 14 0;
#X connect 5 0 12 0;
#X connect 6 0 0 1;
#X connect 7 0 14 1;
#X connect 8 0 15 1;
#X connect 13 0 1 0;
#X connect 14 0 15 0;
#X connect 15 0 5 0;
#X restore 375 194 pd simpleLFO;
#X f 25;
#X floatatom 372 219 5 0 0 0 - - - 0;
#X floatatom 372 162 5 0 0 0 - - - 0;
#X floatatom 457 161 5 0 0 0 - - - 0;
#X floatatom 526 161 5 1 1000 0 - - - 0;
#N canvas 382 407 307 300 simpleLFO 0;
#X obj 90 92 osc~ 3, f 10;
#X obj 78 129 snapshot~;
#X obj 77 16 loadbang;
#X obj 77 40 tgl 19 0 empty empty empty 0 -10 0 12 #fcfcfc #000000 #000000 0 1;
#X floatatom 77 153 5 0 0 0 - - - 0;
#X floatatom 77 224 5 0 0 0 - - - 0;
#X obj 157 49 inlet;
#X obj 178 127 inlet;
#X obj 200 164 inlet;
#X text 162 27 Rate;
#X text 200 146 Offset;
#X text 179 108 Intensity;
#X obj 77 247 outlet;
#X obj 78 176 *, f 15;
#X obj 77 200 +, f 18;
#X obj 78 68 metro 50;
#X connect 0 0 1 0;
#X connect 1 0 4 0;
#X connect 2 0 3 0;
#X connect 3 0 15 0;
#X connect 4 0 13 0;
#X connect 5 0 12 0;
#X connect 6 0 0 1;
#X connect 7 0 13 1;
#X connect 8 0 14 1;
#X connect 13 0 14 0;
#X connect 14 0 5 0;
#X connect 15 0 1 0;
#X restore 379 91 pd simpleLFO;
#X f 25;
#X text 333 15 Set LFO settings for some modulation;
#X text 378 44 Rate;
#X text 517 44 Offset;
#X text 432 44 Intensity;
#X connect 0 0 26 0;
#X connect 1 0 0 0;
#X connect 2 0 19 0;
#X connect 3 0 11 0;
#X connect 4 0 3 1;
#X connect 5 0 2 1;
#X connect 6 0 5 0;
#X connect 7 0 6 0;
#X connect 8 0 2 0;
#X connect 9 0 8 1;
#X connect 10 0 8 0;
#X connect 10 0 12 0;
#X connect 12 0 3 0;
#X connect 13 0 14 1;
#X connect 13 0 15 0;
#X connect 14 0 3 0;
#X connect 15 0 16 0;
#X connect 16 0 12 1;
#X connect 19 0 14 0;
#X connect 24 0 25 0;
#X connect 25 0 13 0;
#X connect 26 0 9 0;
#X connect 28 0 29 0;
#X connect 29 0 4 0;
#X connect 31 0 39 0;
#X connect 32 0 39 1;
#X connect 33 0 39 2;
#X connect 34 0 35 0;
#X connect 36 0 34 0;
#X connect 37 0 34 1;
#X connect 38 0 34 2;
#X connect 39 0 30 0;
#X restore 192 204 pd ringmod;
#X obj 38 30 inlet;
#X obj 114 30 inlet~;
#X obj 192 30 inlet~;
#X obj 192 227 outlet~;
#X obj 112 227 outlet~;
#X connect 0 0 5 0;
#X connect 1 0 2 0;
#X connect 1 0 0 1;
#X connect 2 0 3 0;
#X connect 3 0 4 1;
#X connect 4 0 10 0;
#X connect 5 0 9 0;
#X connect 6 0 1 0;
#X connect 7 0 4 0;
#X connect 8 0 0 0;
#X restore 34 286 pd ringmod_selector;
#N canvas 121 146 450 300 recording 0;
#X obj 32 30 inlet;
#X obj 82 30 inlet;
#X obj 224 30 inlet~;
#X obj 296 30 inlet~;
#X msg 31 156 open -bytes 4 ./meteorite.wav \, start, f 13;
#X obj 227 254 writesf~ 2;
#X msg 82 60 stop;
#X connect 0 0 4 0;
#X connect 1 0 6 0;
#X connect 2 0 5 0;
#X connect 3 0 5 1;
#X connect 4 0 5 0;
#X connect 6 0 5 0;
#X restore 146 578 pd recording;
#X f 19;
#X obj 480 67 * 1000;
#X floatatom 799 338 5 0 0 0 - - - 0;
#X floatatom 548 129 5 0 0 0 - - - 0;
#X obj 480 90 / 2;
#X connect 0 0 6 0;
#X connect 0 1 9 0;
#X connect 1 0 3 0;
#X connect 1 0 49 2;
#X connect 2 0 1 1;
#X connect 2 0 17 1;
#X connect 4 0 0 1;
#X connect 5 0 18 0;
#X connect 5 0 50 0;
#X connect 6 0 7 0;
#X connect 7 0 8 0;
#X connect 8 0 24 0;
#X connect 9 0 10 4;
#X connect 10 0 14 1;
#X connect 11 0 26 1;
#X connect 12 0 28 1;
#X connect 13 0 30 1;
#X connect 14 0 20 0;
#X connect 15 0 20 1;
#X connect 16 0 15 0;
#X connect 17 0 3 1;
#X connect 17 0 49 3;
#X connect 18 0 10 0;
#X connect 18 0 26 0;
#X connect 18 0 28 0;
#X connect 18 0 30 0;
#X connect 18 0 33 0;
#X connect 18 0 35 0;
#X connect 19 0 27 0;
#X connect 19 0 29 0;
#X connect 19 0 31 0;
#X connect 20 1 36 0;
#X connect 23 0 0 0;
#X connect 24 0 48 1;
#X connect 24 0 48 2;
#X connect 25 0 24 1;
#X connect 26 0 10 1;
#X connect 27 0 11 0;
#X connect 28 0 10 2;
#X connect 29 0 12 0;
#X connect 30 0 32 0;
#X connect 31 0 13 0;
#X connect 32 0 10 3;
#X connect 33 0 10 5;
#X connect 33 0 51 0;
#X connect 34 0 33 1;
#X connect 35 0 16 0;
#X connect 36 0 1 0;
#X connect 36 1 17 0;
#X connect 37 0 23 0;
#X connect 38 0 39 0;
#X connect 39 0 2 0;
#X connect 40 0 4 0;
#X connect 41 0 48 0;
#X connect 42 0 25 0;
#X connect 43 0 5 0;
#X connect 44 0 37 0;
#X connect 45 0 49 0;
#X connect 46 0 49 1;
#X connect 48 0 14 0;
#X connect 48 1 14 0;
#X connect 50 0 53 0;
#X connect 53 0 0 2;
#X connect 53 0 52 0;
#X connect 53 0 34 0;
